<svg xmlns="http://www.w3.org/2000/svg" viewBox="0 0 680 90" role="img" aria-label="Rocket Lab" preserveAspectRatio="xMinYMid meet">
  <title>Rocket Lab</title>
  <!-- Body wordmark (R, C, K, E, T, L, B) inherits the surrounding text
       colour via currentColor, so the logo recolours cleanly across
       dark/light themes without any CSS filter hackery. -->
  <g fill="currentColor">
    <path d="M0,89 L0,44 L0,0 L34.74,0 C39.65,0 44.04,0.84 47.92,2.52 C51.8,4.21 54.92,6.47 57.27,9.3 C59.62,12.14 61.4,15.3 62.6,18.77 C63.81,22.23 64.41,25.88 64.41,29.71 C64.41,36.44 62.63,42.45 59.08,47.75 C55.52,53.05 48.66,56.28 41.96,58 L71,89 L42.06,89 L0,89 Z M0,44 L0,89 L42,89 L0,44 Z"/>
    <polygon points="0,62 25,89 0,89"/>
    <path d="M163,44.56 C163,38.5 164.17,32.72 166.5,27.23 C168.83,21.74 171.97,17.01 175.9,13.03 C179.83,9.06 184.53,5.89 189.99,3.53 C195.46,1.18 201.18,0 207.16,0 C214.78,0 221.83,1.79 228.32,5.38 C234.81,8.96 240.08,13.81 244.14,19.91 L226.63,32.15 C224.54,28.83 221.78,26.17 218.34,24.19 C214.9,22.2 211.17,21.21 207.16,21.21 C200.77,21.21 195.36,23.47 190.92,28 C186.47,32.52 184.25,38.05 184.25,44.56 C184.25,51.04 186.46,56.54 190.88,61.06 C195.31,65.59 200.73,67.86 207.16,67.86 C211.21,67.86 214.96,66.88 218.4,64.94 C221.84,62.99 224.62,60.36 226.75,57.04 L244.01,69.15 C239.96,75.25 234.71,80.09 228.26,83.65 C221.81,87.22 214.78,89 207.16,89 C201.18,89 195.46,87.82 189.99,85.47 C184.53,83.11 179.83,79.94 175.9,75.97 C171.97,71.99 168.83,67.26 166.5,61.77 C164.17,56.28 163,50.54 163,44.56 Z M249,89.09 L249,0 L270.58,0 L270.58,25.44 L293.8,0 L323,0 L281.81,43.94 L323,89.09 L293.8,89.09 L270.58,61.94 L270.58,89.09 L249,89.09 Z M327,89 L327,0 L384.55,0 L384.55,18.86 L348.51,18.86 L348.51,35.89 L380.21,35.89 L380.21,54.37 L348.51,54.37 L348.51,70.14 L385.74,70.14 L385.74,89 L327,89 Z M389,18.86 L389,0 L456.51,0 L456.51,18.86 L433.56,18.86 L433.56,89 L412.01,89 L412.01,18.86 L389,18.86 Z M461,89 L461,0 L482.81,0 L482.81,70.14 L514.83,70.14 L514.83,89 L461,89 Z"/>
    <path d="M612,89 L612,0 L647.97,0 C656.11,0 662.63,2.19 667.54,6.56 C672.44,10.93 674.89,16.72 674.89,23.91 C674.89,25.34 674.7,26.84 674.3,28.42 C673.91,29.99 673.28,31.66 672.43,33.43 C671.58,35.2 670.3,36.8 668.6,38.26 C666.89,39.71 663.88,40.77 661.55,41.44 C663.88,41.78 667.01,42.47 668.94,43.52 C670.87,44.57 672.47,45.81 673.74,47.24 C675.01,48.67 676.09,50.27 676.98,52.04 C677.87,53.8 678.52,55.57 678.91,57.34 C679.31,59.1 679.51,60.87 679.51,62.63 C679.51,66.04 678.99,69.25 677.95,72.25 C676.91,75.26 675.3,78.05 673.12,80.61 C670.93,83.18 667.91,85.22 664.05,86.73 C660.18,88.24 655.67,89 650.52,89 L612,89 Z"/>
  </g>
  <!-- Brand accent: the 'O' in Rocket and the triangular 'A' in Lab.
       Stays mint regardless of theme - the accent is the recognition
       mark. Exposed as an attribute so downstream sites can override. -->
  <g fill="#06f4b1">
    <path d="M69,44 C69,37.94 70.17,32.72 72.5,27.23 C74.83,21.74 77.97,17.01 81.9,13.03 C85.83,9.06 90.53,5.89 95.99,3.53 C101.46,1.18 107.02,0 113,0 C121.07,0 128.66,1.99 135.46,5.96 C142.25,9.94 147.62,15.35 151.55,22.19 C155.48,29.03 157.44,35.93 157.44,44 C157.44,52.03 155.48,60.01 151.55,66.81 C147.62,73.61 142.25,79.01 135.46,83.01 C128.66,87 121.07,89 113,89 C107.02,89 101.46,87.82 95.99,85.47 C90.53,83.11 85.83,79.94 81.9,75.97 C77.97,71.99 74.83,67.26 72.5,61.77 C70.17,56.28 69,49.98 69,44 Z"/>
    <polygon points="520,89 563.5,0 607,89"/>
  </g>
</svg>
